<?xml version="1.0" encoding="UTF-8" standalone="no"?>
<!--
 * Licensed to the Apache Software Foundation (ASF) under one or more
 * contributor license agreements.  See the NOTICE file distributed with
 * this work for additional information regarding copyright ownership.
 * The ASF licenses this file to You under the Apache License, Version 2.0
 * (the "License"); you may not use this file except in compliance with
 * the License.  You may obtain a copy of the License at
 *
 *     http://www.apache.org/licenses/LICENSE-2.0
 *
 * Unless required by applicable law or agreed to in writing, software
 * distributed under the License is distributed on an "AS IS" BASIS,
 * WITHOUT WARRANTIES OR CONDITIONS OF ANY KIND, either express or implied.
 * See the License for the specific language governing permissions and
 * limitations under the License.
-->
<svg
   viewBox="152.853 161.31 152.76 177.38"
   width="152.76"
   height="177.38"
   version="1.1"
   id="svg22"
   xmlns="http://www.w3.org/2000/svg"
   xmlns:svg="http://www.w3.org/2000/svg">
  <defs
     id="defs26" />
  <g
     id="Layer_2"
     data-name="Layer 2"
     transform="matrix(1, 0, 0, 1, 152.853187, 161.310005)">
    <g
       id="g4">
      <path
         class="cls-3"
         d="M 76.38 0 L 0 48.2 L 0 128.86 L 76.38 177.06 L 152.76 128.86 L 152.76 48.2 L 76.38 0 Z M 132.63 118.23 L 76.38 153.73 L 20.13 118.23 L 20.13 58.83 L 76.38 23.33 L 132.63 58.83 L 132.63 118.23 Z"
         style="fill: rgb(31, 207, 184);"
         id="path2" />
    </g>
    <circle
       class="cls-4"
       cx="62.76"
       cy="122.05"
       r="4.74"
       style="fill: none; stroke: rgb(205, 204, 204); stroke-miterlimit: 10; stroke-width: 3.55px;"
       id="circle6" />
    <circle
       class="cls-4"
       cx="107.76"
       cy="80.6"
       r="5.33"
       style="fill: none; stroke: rgb(205, 204, 204); stroke-miterlimit: 10; stroke-width: 3.55px;"
       id="circle8" />
    <circle
       class="cls-5"
       cx="59.21"
       cy="81.79"
       r="8.5"
       style="fill: none; stroke: rgb(205, 204, 204); stroke-miterlimit: 10; stroke-width: 5px;"
       id="circle10" />
    <line
       class="cls-4"
       x1="59"
       y1="90.19"
       x2="61.96"
       y2="117.39"
       style="fill: none; stroke: rgb(205, 204, 204); stroke-miterlimit: 10; stroke-width: 3.55px;"
       id="line12" />
    <line
       class="cls-4"
       x1="102.43"
       y1="81.79"
       x2="68"
       y2="82.19"
       style="fill: none; stroke: rgb(205, 204, 204); stroke-miterlimit: 10; stroke-width: 3.55px;"
       id="line14" />
    <g
       id="search">
      <path
         class="cls-3"
         d="M84.24,98.37H81l-1.22-1.22a25.43,25.43,0,0,0,6.5-17.05,26.39,26.39,0,1,0-26.39,26.39A25.43,25.43,0,0,0,76.93,100l1.22,1.22v3.25l20.3,20.3,6.09-6.09Zm-24.36,0A18.27,18.27,0,1,1,78.15,80.1,18.19,18.19,0,0,1,59.88,98.37Z"
         style="fill: rgb(31, 207, 184);"
         id="path16" />
    </g>
    <polygon
       class="cls-6"
       points="152.76 48.1 132.63 58.73 132.63 118.24 75.79 154.11 75.79 177.38 152.76 128.81 152.76 48.1"
       style="fill: rgb(0, 152, 131);"
       id="polygon19" />
  </g>
</svg>
